<svg xmlns="http://www.w3.org/2000/svg" width="32" height="32"><path class="first-path" fill="none" d="M20 2.667h-8c-6.667 0-9.333 2.667-9.333 9.333v8c0 5.04 1.52 7.8 5.147 8.827.293-3.467 3.853-6.2 8.187-6.2s7.893 2.733 8.187 6.2C27.815 27.8 29.335 25.04 29.335 20v-8c0-6.667-2.667-9.333-9.333-9.333zm-4 16.226c-2.64 0-4.773-2.147-4.773-4.787S13.36 9.333 16 9.333c2.64 0 4.773 2.133 4.773 4.773S18.64 18.893 16 18.893z"/><path class="second-path" d="M20.001 30.333h-8c-1.76 0-3.227-.173-4.467-.547a1.022 1.022 0 01-.72-1.04c.333-3.987 4.373-7.12 9.187-7.12s8.84 3.12 9.187 7.12a.983.983 0 01-.72 1.04c-1.24.373-2.707.547-4.467.547zM8.961 28.08c.88.173 1.88.253 3.04.253h8c1.16 0 2.16-.08 3.04-.253-.707-2.56-3.627-4.453-7.04-4.453s-6.333 1.893-7.04 4.453z"/><path class="third-path" d="M16 19.893c-3.187 0-5.773-2.6-5.773-5.787S12.814 8.333 16 8.333c3.187 0 5.773 2.587 5.773 5.773S19.186 19.893 16 19.893zm0-9.56a3.778 3.778 0 00-3.773 3.773A3.781 3.781 0 0016 17.893a3.78 3.78 0 000-7.56z"/></svg>