<svg xmlns="http://www.w3.org/2000/svg" width="32" height="32"><path fill="none" d="M12 29.333h8c6.667 0 9.333-2.667 9.333-9.333v-8c0-6.667-2.667-9.333-9.333-9.333h-8c-6.667 0-9.333 2.667-9.333 9.333v8c0 6.667 2.667 9.333 9.333 9.333z"/><path fill="none" d="M21.707 18.147a5.529 5.529 0 01-5.573 1.373l-3.453 3.44c-.24.253-.733.413-1.093.36l-1.6-.213c-.533-.067-1.013-.573-1.093-1.093l-.213-1.6c-.053-.347.12-.84.36-1.093l3.44-3.44a5.558 5.558 0 011.373-5.573c2.16-2.16 5.68-2.16 7.853 0 2.16 2.147 2.16 5.667 0 7.84zm-7.774 3.56L12.8 20.56m5.059-6.293h.012"/></svg>