<svg xmlns="http://www.w3.org/2000/svg" width="32" height="32"><path d="M10.667 29.76a2.35 2.35 0 01-1.107-.28c-.76-.4-1.227-1.2-1.227-2.053v-1.893c-4.027-.413-6.667-3.373-6.667-7.613v-8c0-4.587 3.08-7.667 7.667-7.667h13.333c4.587 0 7.667 3.08 7.667 7.667v8c0 4.587-3.08 7.667-7.667 7.667h-5.027l-5.68 3.787c-.387.253-.84.387-1.293.387zM9.333 4.24c-3.44 0-5.667 2.227-5.667 5.667v8c0 3.44 2.227 5.667 5.667 5.667.547 0 1 .453 1 1v2.84c0 .173.107.253.173.293s.2.08.347-.013l5.933-3.947c.16-.107.36-.173.56-.173h5.333c3.44 0 5.667-2.227 5.667-5.667v-8c0-3.44-2.227-5.667-5.667-5.667H9.332z"/><path d="M16 16.147c-.547 0-1-.453-1-1v-.28c0-1.547 1.133-2.307 1.56-2.6.493-.333.653-.56.653-.907 0-.667-.547-1.213-1.213-1.213s-1.213.547-1.213 1.213c0 .547-.453 1-1 1s-1-.453-1-1c0-1.773 1.44-3.213 3.213-3.213s3.213 1.44 3.213 3.213c0 1.52-1.12 2.28-1.533 2.56-.52.347-.68.573-.68.947v.28c0 .56-.453 1-1 1z"/><path d="M15.667 18c-.56 0-1-.453-1-1s.453-1 1-1c.547 0 1 .453 1 1s-.44 1-1 1z"/></svg>