<svg xmlns="http://www.w3.org/2000/svg" width="32" height="32"><path d="M20 30.333h-8C4.76 30.333 1.667 27.24 1.667 20v-8C1.667 4.76 4.76 1.667 12 1.667h8c7.24 0 10.333 3.093 10.333 10.333v8c0 7.24-3.093 10.333-10.333 10.333zM12 3.667c-6.147 0-8.333 2.187-8.333 8.333v8c0 6.147 2.187 8.333 8.333 8.333h8c6.147 0 8.333-2.187 8.333-8.333v-8c0-6.147-2.187-8.333-8.333-8.333h-8z"/><path d="M16.001 17.44a1 1 0 01-.507-.133l-7.067-4.08a.99.99 0 01-.36-1.36.99.99 0 011.36-.36l6.56 3.8 6.52-3.773c.48-.28 1.093-.107 1.36.36s.107 1.093-.36 1.36l-7.013 4.053a1.05 1.05 0 01-.493.133z"/><path d="M16 24.693c-.547 0-1-.453-1-1V16.44c0-.547.453-1 1-1s1 .453 1 1v7.253c0 .547-.453 1-1 1z"/><path d="M16 25c-.773 0-1.533-.173-2.147-.507L9.586 22.12c-1.28-.707-2.267-2.4-2.267-3.867v-4.52c0-1.453 1-3.147 2.267-3.867l4.267-2.373c1.227-.68 3.067-.68 4.293 0l4.267 2.373c1.28.707 2.267 2.4 2.267 3.867v4.52c0 1.453-1 3.147-2.267 3.867l-4.267 2.373c-.613.347-1.373.507-2.147.507zm0-16c-.44 0-.867.08-1.173.253l-4.267 2.373c-.653.36-1.24 1.373-1.24 2.107v4.52c0 .747.587 1.747 1.24 2.107l4.267 2.373c.613.347 1.733.347 2.347 0l4.267-2.373c.653-.36 1.24-1.373 1.24-2.107v-4.52c0-.747-.587-1.747-1.24-2.107l-4.267-2.373C16.867 9.08 16.441 9 16.001 9z"/></svg>